<svg width="32" height="32" viewBox="0 0 32 32" fill="none" xmlns="http://www.w3.org/2000/svg">
<g id="css">
<path id="Vector" d="M24.5 0H7.5C3.35786 0 0 3.35786 0 7.5V24.5C0 28.6421 3.35786 32 7.5 32H24.5C28.6421 32 32 28.6421 32 24.5V7.5C32 3.35786 28.6421 0 24.5 0Z" fill="#0277BD"/>
<g id="Vector_2" filter="url(#filter0_i_457_139)">
<path d="M6.71912 12.8314L7.07688 16.8241H16.012V12.8314H6.71912ZM16.0119 4.75H6L6.363 8.74275H16.0119V4.75ZM16.0119 27.3551V23.201L15.9944 23.2056L11.5476 22.005L11.2634 18.8205H7.25525L7.81462 25.0898L15.9935 27.3603L16.0119 27.3551Z" fill="#F5F5F5"/>
</g>
<g id="Vector_3" filter="url(#filter1_i_457_139)">
<path d="M20.9148 16.8241L20.4513 22.0024L15.9982 23.2044V27.3582L24.1835 25.0897L24.2435 24.4151L25.1818 13.9036L25.2792 12.8314L26 4.75H15.9982V8.74275H21.6243L21.261 12.8314H15.9982V16.8241H20.9148Z" fill="white"/>
</g>
</g>
<defs>
<filter id="filter0_i_457_139" x="6" y="4.75" width="10.012" height="26.6102" filterUnits="userSpaceOnUse" color-interpolation-filters="sRGB">
<feFlood flood-opacity="0" result="BackgroundImageFix"/>
<feBlend mode="normal" in="SourceGraphic" in2="BackgroundImageFix" result="shape"/>
<feColorMatrix in="SourceAlpha" type="matrix" values="0 0 0 0 0 0 0 0 0 0 0 0 0 0 0 0 0 0 127 0" result="hardAlpha"/>
<feOffset dy="4"/>
<feGaussianBlur stdDeviation="2"/>
<feComposite in2="hardAlpha" operator="arithmetic" k2="-1" k3="1"/>
<feColorMatrix type="matrix" values="0 0 0 0 0 0 0 0 0 0 0 0 0 0 0 0 0 0 0.25 0"/>
<feBlend mode="normal" in2="shape" result="effect1_innerShadow_457_139"/>
</filter>
<filter id="filter1_i_457_139" x="15.9982" y="4.75" width="10.0018" height="26.6083" filterUnits="userSpaceOnUse" color-interpolation-filters="sRGB">
<feFlood flood-opacity="0" result="BackgroundImageFix"/>
<feBlend mode="normal" in="SourceGraphic" in2="BackgroundImageFix" result="shape"/>
<feColorMatrix in="SourceAlpha" type="matrix" values="0 0 0 0 0 0 0 0 0 0 0 0 0 0 0 0 0 0 127 0" result="hardAlpha"/>
<feOffset dy="4"/>
<feGaussianBlur stdDeviation="2"/>
<feComposite in2="hardAlpha" operator="arithmetic" k2="-1" k3="1"/>
<feColorMatrix type="matrix" values="0 0 0 0 0 0 0 0 0 0 0 0 0 0 0 0 0 0 0.25 0"/>
<feBlend mode="normal" in2="shape" result="effect1_innerShadow_457_139"/>
</filter>
</defs>
</svg>
