<svg width="32" height="32" viewBox="0 0 32 32" fill="none" xmlns="http://www.w3.org/2000/svg">
<g id="mui">
<g id="Group 30">
<g id="Group 13">
<g id="Group 11">
<g id="logo ts" filter="url(#filter0_d_457_132)">
<g id="Vector" filter="url(#filter1_i_457_132)">
<path d="M24.5 0H7.5C3.35786 0 0 3.35786 0 7.5V24.5C0 28.6421 3.35786 32 7.5 32H24.5C28.6421 32 32 28.6421 32 24.5V7.5C32 3.35786 28.6421 0 24.5 0Z" fill="#007ACC"/>
</g>
</g>
</g>
</g>
</g>
<g id="Vector_2" filter="url(#filter2_i_457_132)">
<path fill-rule="evenodd" clip-rule="evenodd" d="M24.7771 21.32C24.8853 21.2481 24.9752 21.1446 25.0379 21.0199C25.1005 20.8951 25.1337 20.7535 25.1341 20.6092L25.1469 15.8486C25.1473 15.7043 25.1805 15.5627 25.2432 15.438C25.3058 15.3132 25.3958 15.2097 25.5039 15.1379L27.7347 13.6555C27.8429 13.5837 27.9654 13.546 28.0901 13.5462C28.2148 13.5465 28.3372 13.5846 28.4451 13.6569C28.553 13.7291 28.6426 13.8329 28.7049 13.9579C28.7672 14.0828 28.8 14.2245 28.8 14.3687V23.0236C28.8 23.1683 28.767 23.3105 28.7043 23.4357C28.6416 23.5609 28.5515 23.6648 28.443 23.7369L20.0239 29.3308C19.9164 29.4022 19.7946 29.4398 19.6706 29.44C19.5466 29.4401 19.4247 29.4027 19.3171 29.3316L12.71 24.9601C12.6011 24.8882 12.5107 24.7843 12.4477 24.6589C12.3848 24.5335 12.3516 24.3911 12.3516 24.2461V19.882C12.3516 19.8771 12.3565 19.8738 12.3608 19.8762C12.3644 19.8787 12.3693 19.8762 12.3693 19.8705V19.8655C12.3693 19.8623 12.3708 19.859 12.3736 19.8573L17.8152 16.241C17.8202 16.2377 17.818 16.2287 17.8123 16.2287L17.8083 16.2268L17.8066 16.2221L17.8173 11.9436C17.8178 11.7989 17.7853 11.6566 17.7231 11.5311C17.6609 11.4056 17.5712 11.3013 17.463 11.2287C17.3548 11.1561 17.232 11.1178 17.1069 11.1177C16.9818 11.1175 16.8589 11.1556 16.7506 11.2279L12.7064 13.9237C12.5985 13.9956 12.4761 14.0334 12.3516 14.0334C12.227 14.0334 12.1046 13.9956 11.9967 13.9237L7.9397 11.2213C7.83161 11.1493 7.70906 11.1115 7.58434 11.1116C7.45961 11.1117 7.33711 11.1497 7.22911 11.2219C7.12111 11.2941 7.03143 11.3978 6.96905 11.5228C6.90667 11.6477 6.87379 11.7894 6.87372 11.9337V19.6665C6.8738 19.8106 6.84115 19.9522 6.77903 20.0772C6.71692 20.2021 6.62751 20.306 6.51978 20.3784C6.41204 20.4507 6.28976 20.4891 6.16517 20.4897C6.04057 20.4902 5.91805 20.4528 5.80986 20.3813L3.55842 18.8924C3.44937 18.8203 3.35876 18.7161 3.29581 18.5904C3.23285 18.4647 3.1998 18.322 3.20001 18.1767L3.21992 4.66081C3.2202 4.51672 3.25318 4.37524 3.31557 4.25053C3.37797 4.12582 3.46758 4.02226 3.57545 3.9502C3.68332 3.87815 3.80565 3.84014 3.93021 3.83997C4.05477 3.8398 4.17718 3.87747 4.2852 3.94923L11.9974 9.07341C12.1052 9.14501 12.2273 9.18268 12.3516 9.18268C12.4758 9.18268 12.5979 9.14501 12.7057 9.07341L20.4158 3.94923C20.524 3.87737 20.6466 3.83969 20.7713 3.83997C20.896 3.84025 21.0185 3.87848 21.1265 3.95082C21.2344 4.02317 21.324 4.12708 21.3862 4.25213C21.4484 4.37719 21.4812 4.51898 21.4811 4.66328V18.1824C21.4811 18.3271 21.4482 18.4691 21.3856 18.5943C21.3231 18.7196 21.2331 18.8235 21.1248 18.8957L17.087 21.5857C16.9785 21.658 16.8885 21.7622 16.826 21.8876C16.7635 22.0131 16.7307 22.1554 16.731 22.3003C16.7313 22.4451 16.7646 22.5872 16.8276 22.7124C16.8906 22.8375 16.9811 22.9412 17.0898 23.0129L19.3171 24.4797C19.4247 24.5506 19.5465 24.5877 19.6703 24.5874C19.7942 24.5871 19.9158 24.5494 20.0232 24.478L24.7771 21.32ZM25.2444 9.1927C25.2445 9.33818 25.2779 9.48102 25.3413 9.60667C25.4047 9.73232 25.4957 9.83628 25.6052 9.90795C25.7146 9.97961 25.8385 10.0164 25.9643 10.0146C26.09 10.0128 26.2131 9.97247 26.321 9.89769L28.4544 8.41695C28.5597 8.34395 28.6469 8.24065 28.7075 8.11711C28.768 7.99356 28.7999 7.85398 28.8 7.71196V4.69454C28.7998 4.54913 28.7662 4.40638 28.7028 4.28085C28.6394 4.15531 28.5483 4.05147 28.4389 3.97991C28.3295 3.90834 28.2056 3.8716 28.0799 3.87344C27.9542 3.87528 27.8312 3.91562 27.7234 3.99036L25.59 5.4711C25.4847 5.54411 25.3975 5.64741 25.3369 5.77095C25.2763 5.89449 25.2445 6.03407 25.2444 6.1761V9.1927Z" fill="white"/>
</g>
</g>
<defs>
<filter id="filter0_d_457_132" x="-4" y="0" width="40" height="40" filterUnits="userSpaceOnUse" color-interpolation-filters="sRGB">
<feFlood flood-opacity="0" result="BackgroundImageFix"/>
<feColorMatrix in="SourceAlpha" type="matrix" values="0 0 0 0 0 0 0 0 0 0 0 0 0 0 0 0 0 0 127 0" result="hardAlpha"/>
<feOffset dy="4"/>
<feGaussianBlur stdDeviation="2"/>
<feComposite in2="hardAlpha" operator="out"/>
<feColorMatrix type="matrix" values="0 0 0 0 0 0 0 0 0 0 0 0 0 0 0 0 0 0 0.25 0"/>
<feBlend mode="normal" in2="BackgroundImageFix" result="effect1_dropShadow_457_132"/>
<feBlend mode="normal" in="SourceGraphic" in2="effect1_dropShadow_457_132" result="shape"/>
</filter>
<filter id="filter1_i_457_132" x="0" y="0" width="32" height="36" filterUnits="userSpaceOnUse" color-interpolation-filters="sRGB">
<feFlood flood-opacity="0" result="BackgroundImageFix"/>
<feBlend mode="normal" in="SourceGraphic" in2="BackgroundImageFix" result="shape"/>
<feColorMatrix in="SourceAlpha" type="matrix" values="0 0 0 0 0 0 0 0 0 0 0 0 0 0 0 0 0 0 127 0" result="hardAlpha"/>
<feOffset dy="4"/>
<feGaussianBlur stdDeviation="2"/>
<feComposite in2="hardAlpha" operator="arithmetic" k2="-1" k3="1"/>
<feColorMatrix type="matrix" values="0 0 0 0 0 0 0 0 0 0 0 0 0 0 0 0 0 0 0.25 0"/>
<feBlend mode="normal" in2="shape" result="effect1_innerShadow_457_132"/>
</filter>
<filter id="filter2_i_457_132" x="3.20001" y="3.83997" width="25.6" height="29.6" filterUnits="userSpaceOnUse" color-interpolation-filters="sRGB">
<feFlood flood-opacity="0" result="BackgroundImageFix"/>
<feBlend mode="normal" in="SourceGraphic" in2="BackgroundImageFix" result="shape"/>
<feColorMatrix in="SourceAlpha" type="matrix" values="0 0 0 0 0 0 0 0 0 0 0 0 0 0 0 0 0 0 127 0" result="hardAlpha"/>
<feOffset dy="4"/>
<feGaussianBlur stdDeviation="2"/>
<feComposite in2="hardAlpha" operator="arithmetic" k2="-1" k3="1"/>
<feColorMatrix type="matrix" values="0 0 0 0 0 0 0 0 0 0 0 0 0 0 0 0 0 0 0.25 0"/>
<feBlend mode="normal" in2="shape" result="effect1_innerShadow_457_132"/>
</filter>
</defs>
</svg>
