<svg width="32" height="32" viewBox="0 0 32 32" fill="none" xmlns="http://www.w3.org/2000/svg">
<g id="next">
<g id="logo" filter="url(#filter0_i_457_97)">
<path id="Ellipse 2" d="M27.8 15.8732C27.8 22.3108 22.5263 27.5465 16 27.5465C9.47359 27.5465 4.19995 22.3108 4.19995 15.8732C4.19995 9.43561 9.47359 4.19995 16 4.19995C22.5263 4.19995 27.8 9.43561 27.8 15.8732Z" fill="#D9D9D9" stroke="white" stroke-width="2"/>
<g id="Group 7">
<g id="Group 9">
<g id="Vector" filter="url(#filter1_d_457_97)">
<path d="M24.5 0H7.5C3.35786 0 0 3.35786 0 7.5V24.5C0 28.6421 3.35786 32 7.5 32H24.5C28.6421 32 32 28.6421 32 24.5V7.5C32 3.35786 28.6421 0 24.5 0Z" fill="#007ACC"/>
</g>
</g>
</g>
</g>
<path id="Ellipse 4" d="M28.7999 16C28.7999 23.0692 23.0692 28.7999 16 28.7999C8.93071 28.7999 3.19995 23.0692 3.19995 16C3.19995 8.93071 8.93071 3.19995 16 3.19995C23.0692 3.19995 28.7999 8.93071 28.7999 16Z" fill="white"/>
<path id="Vector_2" d="M27.7999 16C27.7999 19.7908 26.0146 23.1512 23.2405 25.3075L21.42 22.5748V20.12V11.56V10.56H20.42H18.92H17.92V11.56V17.3213L13.7122 11.0055L13.4153 10.56H12.88H11.5199H10.5199V11.56V21.58V22.58H11.5199H12.88H13.88V21.58V17.3742L20.6591 26.8416C19.2339 27.4551 17.659 27.7999 16 27.7999C9.49224 27.7999 4.19995 22.5077 4.19995 16C4.19995 9.49224 9.49224 4.19995 16 4.19995C22.5077 4.19995 27.7999 9.49224 27.7999 16Z" fill="#30312E" stroke="white" stroke-width="2"/>
</g>
<defs>
<filter id="filter0_i_457_97" x="0" y="0" width="32" height="36" filterUnits="userSpaceOnUse" color-interpolation-filters="sRGB">
<feFlood flood-opacity="0" result="BackgroundImageFix"/>
<feBlend mode="normal" in="SourceGraphic" in2="BackgroundImageFix" result="shape"/>
<feColorMatrix in="SourceAlpha" type="matrix" values="0 0 0 0 0 0 0 0 0 0 0 0 0 0 0 0 0 0 127 0" result="hardAlpha"/>
<feOffset dy="4"/>
<feGaussianBlur stdDeviation="2"/>
<feComposite in2="hardAlpha" operator="arithmetic" k2="-1" k3="1"/>
<feColorMatrix type="matrix" values="0 0 0 0 0 0 0 0 0 0 0 0 0 0 0 0 0 0 0.25 0"/>
<feBlend mode="normal" in2="shape" result="effect1_innerShadow_457_97"/>
</filter>
<filter id="filter1_d_457_97" x="-4" y="0" width="40" height="40" filterUnits="userSpaceOnUse" color-interpolation-filters="sRGB">
<feFlood flood-opacity="0" result="BackgroundImageFix"/>
<feColorMatrix in="SourceAlpha" type="matrix" values="0 0 0 0 0 0 0 0 0 0 0 0 0 0 0 0 0 0 127 0" result="hardAlpha"/>
<feOffset dy="4"/>
<feGaussianBlur stdDeviation="2"/>
<feComposite in2="hardAlpha" operator="out"/>
<feColorMatrix type="matrix" values="0 0 0 0 0 0 0 0 0 0 0 0 0 0 0 0 0 0 0.25 0"/>
<feBlend mode="normal" in2="BackgroundImageFix" result="effect1_dropShadow_457_97"/>
<feBlend mode="normal" in="SourceGraphic" in2="effect1_dropShadow_457_97" result="shape"/>
</filter>
</defs>
</svg>
