<svg width="32" height="32" viewBox="0 0 32 32" fill="none" xmlns="http://www.w3.org/2000/svg">
<g id="react" filter="url(#filter0_i_457_81)">
<g id="logo js">
<path id="Vector" d="M24.5 0H7.5C3.35786 0 0 3.35786 0 7.5V24.5C0 28.6421 3.35786 32 7.5 32H24.5C28.6421 32 32 28.6421 32 24.5V7.5C32 3.35786 28.6421 0 24.5 0Z" fill="#F0DB4F"/>
</g>
<g id="logo react" filter="url(#filter1_i_457_81)">
<path d="M24.2483 11.4974C23.9758 11.3924 23.7011 11.295 23.4243 11.2055C23.4708 10.992 23.5136 10.781 23.5516 10.5738C24.1754 7.17031 23.7676 4.42842 22.3747 3.52565C21.0392 2.66021 18.8551 3.56263 16.6493 5.72029C16.4319 5.93332 16.2193 6.15249 16.0118 6.37758C15.8728 6.2279 15.7314 6.08112 15.5877 5.93733C13.2759 3.63029 10.9587 2.65796 9.56725 3.56331C8.23295 4.43145 7.83785 7.00902 8.39945 10.2345C8.45532 10.554 8.51841 10.8718 8.58865 11.1877C8.26065 11.2924 7.94415 11.4039 7.64125 11.5226C4.93085 12.5847 3.19995 14.2492 3.19995 15.9757C3.19995 17.7589 5.05815 19.5474 7.88115 20.6319C8.11002 20.7195 8.34079 20.8006 8.57325 20.8753C8.49775 21.2155 8.43073 21.5579 8.37225 21.9023C7.83685 25.0719 8.25495 27.5886 9.58565 28.4512C10.9601 29.342 13.2669 28.4265 15.513 26.2196C15.6951 26.0402 15.8732 25.8557 16.0472 25.6662C16.2719 25.91 16.5027 26.1466 16.7392 26.3759C18.915 28.4802 21.0638 29.3299 22.3932 28.4649C23.7663 27.5715 24.2126 24.8679 23.6332 21.5786C23.5875 21.321 23.5363 21.0645 23.4797 20.8096C23.6417 20.7557 23.8007 20.7002 23.9557 20.6424C26.8905 19.5496 28.8 17.7827 28.8 15.9757C28.8 14.2429 27.0132 12.5672 24.2483 11.4974ZM23.6118 19.4757C23.4718 19.5278 23.3282 19.578 23.1818 19.6269C22.8578 18.4741 22.4206 17.2483 21.8855 15.9817C22.3961 14.7453 22.8165 13.5352 23.1314 12.3898C23.3933 12.475 23.6474 12.5648 23.8924 12.6596C26.2614 13.5763 27.7064 14.9315 27.7064 15.9757C27.7064 17.088 26.1458 18.5319 23.6118 19.4757ZM22.5604 21.8174C22.8166 23.2718 22.8531 24.5868 22.6834 25.6149C22.531 26.5387 22.2244 27.1545 21.8452 27.4012C21.0385 27.9261 19.3132 27.2438 17.4525 25.4442C17.2325 25.231 17.0178 25.011 16.8088 24.7844C17.5302 23.8977 18.2511 22.8669 18.9547 21.7221C20.1923 21.5987 21.3615 21.3968 22.4218 21.1213C22.4728 21.3521 22.519 21.5842 22.5604 21.8174ZM11.9276 27.3105C11.1394 27.6233 10.5116 27.6323 10.1321 27.3864C9.32455 26.8629 8.98885 24.8422 9.44675 22.1316C9.50118 21.8113 9.56351 21.4928 9.63365 21.1764C10.6823 21.4371 11.843 21.6246 13.0835 21.7377C13.7919 22.8579 14.5336 23.8876 15.2811 24.7892C15.1222 24.962 14.9596 25.1303 14.7934 25.2941C13.8001 26.2699 12.8048 26.9623 11.9276 27.3105ZM8.23495 19.4689C6.98665 18.9893 5.95575 18.366 5.24915 17.6859C4.61415 17.0748 4.29365 16.468 4.29365 15.9757C4.29365 14.928 5.68335 13.5916 8.00125 12.6833C8.28255 12.5732 8.57695 12.4692 8.88245 12.3716C9.20285 13.5428 9.62305 14.7674 10.1302 16.0056C9.61645 17.2622 9.19025 18.5063 8.86675 19.6913C8.65456 19.623 8.4439 19.5488 8.23495 19.4689ZM9.47275 9.99841C8.99165 7.23493 9.31115 5.15033 10.1153 4.62713C10.9717 4.06987 12.8655 4.8644 14.8616 6.8565C14.9917 6.9867 15.1198 7.11953 15.2457 7.25494C14.5019 8.15265 13.767 9.17466 13.0649 10.2883C11.8609 10.4137 10.7084 10.6151 9.64875 10.885C9.58347 10.5912 9.52478 10.2955 9.47275 9.99841ZM20.5155 13.0632C20.2652 12.5773 20.0056 12.0975 19.7369 11.6242C20.5537 11.7403 21.3364 11.8944 22.0713 12.0828C21.8507 12.8776 21.5757 13.7086 21.252 14.5605C21.0153 14.056 20.7698 13.5568 20.5155 13.0632ZM16.0123 8.13343C16.5167 8.74767 17.0219 9.43339 17.5188 10.1775C16.5108 10.1239 15.5011 10.1237 14.4931 10.1768C14.9905 9.43958 15.5 8.75475 16.0123 8.13343ZM11.4802 13.0716C11.229 13.5612 10.988 14.0573 10.7575 14.5595C10.4391 13.7106 10.1666 12.8758 9.94405 12.0697C10.6745 11.8861 11.4534 11.7359 12.265 11.622C11.9933 12.0982 11.7316 12.5816 11.4802 13.0716ZM12.2883 20.4169C11.4498 20.3117 10.6592 20.1693 9.92895 19.9906C10.155 19.1701 10.4335 18.3176 10.7588 17.4505C10.9902 17.9531 11.2322 18.4495 11.4845 18.9393C11.7439 19.4428 12.0125 19.936 12.2883 20.4169ZM16.0425 23.9046C15.5241 23.276 15.0071 22.5807 14.5022 21.8328C14.9924 21.8544 15.4921 21.8654 16 21.8654C16.5218 21.8654 17.0376 21.8522 17.5453 21.8268C17.0468 22.5882 16.5435 23.2846 16.0425 23.9046ZM21.2623 17.4062C21.6045 18.2829 21.8929 19.1309 22.1219 19.9373C21.3797 20.1277 20.5783 20.281 19.7339 20.3949C20.0044 19.9128 20.2664 19.4247 20.5198 18.9308C20.7773 18.4289 21.0248 17.9205 21.2623 17.4062ZM19.5725 18.3167C19.1847 19.0738 18.7751 19.8166 18.3444 20.5438C17.5641 20.6059 16.7821 20.6368 16 20.6363C15.2033 20.6363 14.4284 20.6084 13.6822 20.554C13.2402 19.8285 12.8228 19.0844 12.4309 18.3234C12.0408 17.5665 11.6765 16.7931 11.3387 16.0051C11.6756 15.2168 12.0389 14.4431 12.4277 13.6855C12.8163 12.9278 13.2302 12.187 13.6689 11.4646C14.4302 11.3999 15.2109 11.3661 15.9999 11.3661C16.7925 11.3661 17.5743 11.4002 18.3354 11.4654C18.7696 12.1867 19.181 12.9251 19.5689 13.679C19.9589 14.4349 20.327 15.2049 20.6725 15.9876C20.3305 16.7784 19.9636 17.5553 19.5725 18.3167ZM21.8285 4.59049C22.6857 5.14617 23.0191 7.38701 22.4805 10.3256C22.4461 10.5131 22.4075 10.704 22.3655 10.8977C21.3033 10.6221 20.15 10.4172 18.9425 10.2898C18.2391 9.16398 17.5102 8.14039 16.7785 7.25427C16.9702 7.0465 17.1665 6.84413 17.3673 6.64733C19.2573 4.79876 21.0237 4.06886 21.8285 4.59049ZM16 13.4064C17.2625 13.4064 18.286 14.5567 18.286 15.9757C18.286 17.3947 17.2625 18.5451 16 18.5451C14.7375 18.5451 13.714 17.3947 13.714 15.9757C13.714 14.5567 14.7375 13.4064 16 13.4064Z" fill="#323330"/>
</g>
</g>
<defs>
<filter id="filter0_i_457_81" x="0" y="0" width="32" height="36" filterUnits="userSpaceOnUse" color-interpolation-filters="sRGB">
<feFlood flood-opacity="0" result="BackgroundImageFix"/>
<feBlend mode="normal" in="SourceGraphic" in2="BackgroundImageFix" result="shape"/>
<feColorMatrix in="SourceAlpha" type="matrix" values="0 0 0 0 0 0 0 0 0 0 0 0 0 0 0 0 0 0 127 0" result="hardAlpha"/>
<feOffset dy="4"/>
<feGaussianBlur stdDeviation="2"/>
<feComposite in2="hardAlpha" operator="arithmetic" k2="-1" k3="1"/>
<feColorMatrix type="matrix" values="0 0 0 0 0 0 0 0 0 0 0 0 0 0 0 0 0 0 0.25 0"/>
<feBlend mode="normal" in2="shape" result="effect1_innerShadow_457_81"/>
</filter>
<filter id="filter1_i_457_81" x="3.19995" y="3.19995" width="25.6" height="29.6" filterUnits="userSpaceOnUse" color-interpolation-filters="sRGB">
<feFlood flood-opacity="0" result="BackgroundImageFix"/>
<feBlend mode="normal" in="SourceGraphic" in2="BackgroundImageFix" result="shape"/>
<feColorMatrix in="SourceAlpha" type="matrix" values="0 0 0 0 0 0 0 0 0 0 0 0 0 0 0 0 0 0 127 0" result="hardAlpha"/>
<feOffset dy="4"/>
<feGaussianBlur stdDeviation="2"/>
<feComposite in2="hardAlpha" operator="arithmetic" k2="-1" k3="1"/>
<feColorMatrix type="matrix" values="0 0 0 0 0 0 0 0 0 0 0 0 0 0 0 0 0 0 0.25 0"/>
<feBlend mode="normal" in2="shape" result="effect1_innerShadow_457_81"/>
</filter>
</defs>
</svg>
