<svg width="32" height="32" viewBox="0 0 32 32" fill="none" xmlns="http://www.w3.org/2000/svg">
<g id="redux" filter="url(#filter0_d_457_105)">
<g id="Group 13">
<g id="Group 26">
<g id="Vector" filter="url(#filter1_d_457_105)">
<path d="M24.5 0H7.5C3.35786 0 0 3.35786 0 7.5V24.5C0 28.6421 3.35786 32 7.5 32H24.5C28.6421 32 32 28.6421 32 24.5V7.5C32 3.35786 28.6421 0 24.5 0Z" fill="#007ACC"/>
</g>
<g id="redux_2" filter="url(#filter2_i_457_105)">
<path d="M20.938 20.1188C21.8827 20.0158 22.5994 19.158 22.5668 18.1284C22.5343 17.099 21.7198 16.2754 20.7425 16.2754H20.6774C19.6674 16.3097 18.8856 17.2019 18.9182 18.2657C18.9508 18.7804 19.1462 19.2265 19.4394 19.5354C18.3318 21.8346 16.6378 23.5161 14.0968 24.9231C12.3702 25.8839 10.5785 26.2271 8.78685 25.9869C7.32085 25.781 6.18065 25.0947 5.46385 23.9622C4.42145 22.2807 4.32375 20.4619 5.20335 18.6432C5.82235 17.3391 6.79955 16.3783 7.41855 15.8978C7.28825 15.4517 7.09275 14.6968 6.99505 14.1478C2.27135 17.751 2.76005 22.6239 4.19345 24.9231C5.26845 26.639 7.45115 27.7027 9.86185 27.7027C10.5133 27.7027 11.1648 27.6341 11.8164 27.4626C15.9863 26.6046 19.1463 23.9965 20.938 20.1188ZM26.6716 15.8636C24.1957 12.8094 20.5471 11.128 16.3772 11.128H15.856C15.5628 10.5103 14.9438 10.0984 14.2597 10.0984H14.1945C13.1847 10.1327 12.4029 11.0249 12.4354 12.0888C12.468 13.1183 13.2824 13.9419 14.2597 13.9419H14.3248C15.0415 13.9075 15.6605 13.4271 15.9211 12.7751H16.5075C18.9834 12.7751 21.3289 13.53 23.4465 15.0057C25.0753 16.1381 26.2481 17.6137 26.8996 19.3981C27.4534 20.8394 27.4208 22.2464 26.8344 23.4475C25.9223 25.2662 24.3912 26.2614 22.3714 26.2614C21.0683 26.2614 19.8304 25.8496 19.1788 25.5407C18.8205 25.8839 18.1689 26.4329 17.7128 26.7762C19.1137 27.4625 20.5471 27.84 21.9153 27.84C25.0427 27.84 27.3557 26.0212 28.2353 24.2025C29.18 22.212 29.1148 18.7804 26.6716 15.8636ZM10.1224 20.7021C10.155 21.7316 10.9694 22.5551 11.9467 22.5551H12.0119C13.0218 22.5209 13.8036 21.6286 13.771 20.5648C13.7385 19.5353 12.924 18.7118 11.9467 18.7118H11.8816C11.8164 18.7118 11.7186 18.7118 11.6536 18.746C10.3179 16.4125 9.76415 13.8732 9.95965 11.1278C10.0898 9.06886 10.7414 7.28438 11.8816 5.80874C12.8263 4.53903 14.6506 3.92135 15.8886 3.88711C19.3417 3.81844 20.8076 8.34816 20.9054 10.167C21.3289 10.2699 22.0456 10.5102 22.5343 10.6818C22.1433 5.12259 18.8856 2.23999 15.7583 2.23999C12.8263 2.23999 10.1224 4.47057 9.04735 7.76492C7.54885 12.1574 8.52615 16.3783 10.3504 19.707C10.1876 19.9471 10.0898 20.3245 10.1224 20.7021Z" fill="white"/>
</g>
</g>
</g>
</g>
<defs>
<filter id="filter0_d_457_105" x="-4" y="0" width="40" height="40" filterUnits="userSpaceOnUse" color-interpolation-filters="sRGB">
<feFlood flood-opacity="0" result="BackgroundImageFix"/>
<feColorMatrix in="SourceAlpha" type="matrix" values="0 0 0 0 0 0 0 0 0 0 0 0 0 0 0 0 0 0 127 0" result="hardAlpha"/>
<feOffset dy="4"/>
<feGaussianBlur stdDeviation="2"/>
<feComposite in2="hardAlpha" operator="out"/>
<feColorMatrix type="matrix" values="0 0 0 0 0 0 0 0 0 0 0 0 0 0 0 0 0 0 0.25 0"/>
<feBlend mode="normal" in2="BackgroundImageFix" result="effect1_dropShadow_457_105"/>
<feBlend mode="normal" in="SourceGraphic" in2="effect1_dropShadow_457_105" result="shape"/>
</filter>
<filter id="filter1_d_457_105" x="-4" y="0" width="40" height="40" filterUnits="userSpaceOnUse" color-interpolation-filters="sRGB">
<feFlood flood-opacity="0" result="BackgroundImageFix"/>
<feColorMatrix in="SourceAlpha" type="matrix" values="0 0 0 0 0 0 0 0 0 0 0 0 0 0 0 0 0 0 127 0" result="hardAlpha"/>
<feOffset dy="4"/>
<feGaussianBlur stdDeviation="2"/>
<feComposite in2="hardAlpha" operator="out"/>
<feColorMatrix type="matrix" values="0 0 0 0 0 0 0 0 0 0 0 0 0 0 0 0 0 0 0.25 0"/>
<feBlend mode="normal" in2="BackgroundImageFix" result="effect1_dropShadow_457_105"/>
<feBlend mode="normal" in="SourceGraphic" in2="effect1_dropShadow_457_105" result="shape"/>
</filter>
<filter id="filter2_i_457_105" x="3.19995" y="2.23999" width="25.6" height="29.6" filterUnits="userSpaceOnUse" color-interpolation-filters="sRGB">
<feFlood flood-opacity="0" result="BackgroundImageFix"/>
<feBlend mode="normal" in="SourceGraphic" in2="BackgroundImageFix" result="shape"/>
<feColorMatrix in="SourceAlpha" type="matrix" values="0 0 0 0 0 0 0 0 0 0 0 0 0 0 0 0 0 0 127 0" result="hardAlpha"/>
<feOffset dy="4"/>
<feGaussianBlur stdDeviation="2"/>
<feComposite in2="hardAlpha" operator="arithmetic" k2="-1" k3="1"/>
<feColorMatrix type="matrix" values="0 0 0 0 0 0 0 0 0 0 0 0 0 0 0 0 0 0 0.25 0"/>
<feBlend mode="normal" in2="shape" result="effect1_innerShadow_457_105"/>
</filter>
</defs>
</svg>
