<svg width="32" height="32" viewBox="0 0 32 32" fill="none" xmlns="http://www.w3.org/2000/svg">
<g id="tailwindcss" filter="url(#filter0_d_457_110)">
<g id="Group 11">
<g id="logo ts" filter="url(#filter1_d_457_110)">
<g id="Vector" filter="url(#filter2_i_457_110)">
<path d="M24.5 0H7.5C3.35786 0 0 3.35786 0 7.5V24.5C0 28.6421 3.35786 32 7.5 32H24.5C28.6421 32 32 28.6421 32 24.5V7.5C32 3.35786 28.6421 0 24.5 0Z" fill="#F0DB4F"/>
</g>
</g>
</g>
<g id="tailwind">
<g filter="url(#filter3_i_457_110)">
<path d="M9.59995 12.2667C10.4533 7.28894 12.5866 4.80005 16 4.80005C21.12 4.80005 21.76 10.4 24.32 11.3334C26.0266 11.9556 27.52 11.0223 28.8 8.53338C27.9466 13.5112 25.8133 16 22.4 16C17.28 16 16.64 10.4001 14.08 9.46672C12.3733 8.84449 10.88 9.77783 9.59995 12.2667ZM3.19995 23.4667C4.05328 18.4889 6.18662 16 9.59995 16C14.72 16 15.36 21.6001 17.92 22.5334C19.6266 23.1556 21.12 22.2223 22.4 19.7334C21.5466 24.7112 19.4133 27.2 16 27.2C10.88 27.2 10.24 21.6001 7.67995 20.6667C5.97329 20.0445 4.47995 20.9778 3.19995 23.4667Z" fill="#2E2F2C"/>
</g>
<path d="M11.415 9.27605C11.17 9.42912 10.9342 9.61586 10.7068 9.83452C11.1052 8.64285 11.6128 7.69998 12.2196 6.99211C13.1869 5.86362 14.4324 5.30005 16 5.30005C18.3256 5.30005 19.6355 6.5482 20.7177 8.01374C20.9793 8.36792 21.2236 8.7296 21.4673 9.09031L21.4982 9.13597C21.7495 9.508 22.0023 9.8806 22.2622 10.2218C22.7752 10.8951 23.3681 11.5185 24.1487 11.8031C25.1414 12.1651 26.1029 12.0753 26.985 11.524C27.2299 11.371 27.4657 11.1842 27.6931 10.9656C27.2947 12.1573 26.7871 13.1001 26.1803 13.808C25.213 14.9365 23.9675 15.5 22.4 15.5C20.0743 15.5 18.7644 14.2519 17.6822 12.7864C17.4206 12.4322 17.1763 12.0705 16.9326 11.7098L16.9017 11.6641C16.6504 11.2921 16.3976 10.9195 16.1377 10.5783C15.6247 9.90499 15.0318 9.28156 14.2512 8.99696C13.2585 8.63503 12.297 8.72479 11.415 9.27605ZM5.01495 20.4761C4.77004 20.6291 4.53419 20.8159 4.30682 21.0345C4.70515 19.8429 5.21283 18.9 5.81958 18.1921C6.78686 17.0636 8.03236 16.5 9.59995 16.5C11.9256 16.5 13.2355 17.7482 14.3177 19.2137C14.5793 19.5679 14.8236 19.9296 15.0673 20.2903L15.0982 20.336C15.3495 20.708 15.6023 21.0806 15.8622 21.4218C16.3752 22.0951 16.9681 22.7185 17.7487 23.0031C18.7414 23.3651 19.7029 23.2753 20.585 22.724C20.8299 22.571 21.0657 22.3842 21.2931 22.1656C20.8947 23.3573 20.3871 24.3001 19.7803 25.008C18.813 26.1365 17.5675 26.7 16 26.7C13.6743 26.7 12.3644 25.4519 11.2822 23.9864C11.0206 23.6322 10.7763 23.2705 10.5326 22.9098L10.5017 22.8641C10.2504 22.4921 9.99765 22.1195 9.73767 21.7783C9.22469 21.105 8.63184 20.4816 7.85122 20.197C6.8585 19.835 5.89696 19.9248 5.01495 20.4761Z" stroke="#2D2E2B"/>
</g>
</g>
<defs>
<filter id="filter0_d_457_110" x="-4" y="0" width="40" height="40" filterUnits="userSpaceOnUse" color-interpolation-filters="sRGB">
<feFlood flood-opacity="0" result="BackgroundImageFix"/>
<feColorMatrix in="SourceAlpha" type="matrix" values="0 0 0 0 0 0 0 0 0 0 0 0 0 0 0 0 0 0 127 0" result="hardAlpha"/>
<feOffset dy="4"/>
<feGaussianBlur stdDeviation="2"/>
<feComposite in2="hardAlpha" operator="out"/>
<feColorMatrix type="matrix" values="0 0 0 0 0 0 0 0 0 0 0 0 0 0 0 0 0 0 0.25 0"/>
<feBlend mode="normal" in2="BackgroundImageFix" result="effect1_dropShadow_457_110"/>
<feBlend mode="normal" in="SourceGraphic" in2="effect1_dropShadow_457_110" result="shape"/>
</filter>
<filter id="filter1_d_457_110" x="-4" y="0" width="40" height="40" filterUnits="userSpaceOnUse" color-interpolation-filters="sRGB">
<feFlood flood-opacity="0" result="BackgroundImageFix"/>
<feColorMatrix in="SourceAlpha" type="matrix" values="0 0 0 0 0 0 0 0 0 0 0 0 0 0 0 0 0 0 127 0" result="hardAlpha"/>
<feOffset dy="4"/>
<feGaussianBlur stdDeviation="2"/>
<feComposite in2="hardAlpha" operator="out"/>
<feColorMatrix type="matrix" values="0 0 0 0 0 0 0 0 0 0 0 0 0 0 0 0 0 0 0.25 0"/>
<feBlend mode="normal" in2="BackgroundImageFix" result="effect1_dropShadow_457_110"/>
<feBlend mode="normal" in="SourceGraphic" in2="effect1_dropShadow_457_110" result="shape"/>
</filter>
<filter id="filter2_i_457_110" x="0" y="0" width="32" height="36" filterUnits="userSpaceOnUse" color-interpolation-filters="sRGB">
<feFlood flood-opacity="0" result="BackgroundImageFix"/>
<feBlend mode="normal" in="SourceGraphic" in2="BackgroundImageFix" result="shape"/>
<feColorMatrix in="SourceAlpha" type="matrix" values="0 0 0 0 0 0 0 0 0 0 0 0 0 0 0 0 0 0 127 0" result="hardAlpha"/>
<feOffset dy="4"/>
<feGaussianBlur stdDeviation="2"/>
<feComposite in2="hardAlpha" operator="arithmetic" k2="-1" k3="1"/>
<feColorMatrix type="matrix" values="0 0 0 0 0 0 0 0 0 0 0 0 0 0 0 0 0 0 0.25 0"/>
<feBlend mode="normal" in2="shape" result="effect1_innerShadow_457_110"/>
</filter>
<filter id="filter3_i_457_110" x="3.19995" y="4.80005" width="25.6" height="26.4" filterUnits="userSpaceOnUse" color-interpolation-filters="sRGB">
<feFlood flood-opacity="0" result="BackgroundImageFix"/>
<feBlend mode="normal" in="SourceGraphic" in2="BackgroundImageFix" result="shape"/>
<feColorMatrix in="SourceAlpha" type="matrix" values="0 0 0 0 0 0 0 0 0 0 0 0 0 0 0 0 0 0 127 0" result="hardAlpha"/>
<feOffset dy="4"/>
<feGaussianBlur stdDeviation="2"/>
<feComposite in2="hardAlpha" operator="arithmetic" k2="-1" k3="1"/>
<feColorMatrix type="matrix" values="0 0 0 0 0 0 0 0 0 0 0 0 0 0 0 0 0 0 0.25 0"/>
<feBlend mode="normal" in2="shape" result="effect1_innerShadow_457_110"/>
</filter>
</defs>
</svg>
